<?xml version="1.0" encoding="UTF-8"?><svg id="Layer_1" xmlns="http://www.w3.org/2000/svg" viewBox="0 0 310.94 141.59"><defs><style>.cls-1{fill:#fff;}.cls-2{fill:#f7931e;}.cls-3{fill:#fbb03b;}</style></defs><path class="cls-3" d="M188.58,65.89s4.37,63.8,51.17,65.34c46.8,1.54,0-119.77,0-119.77,0,0-35.76-9.3-51.17,54.43Z"/><path class="cls-3" d="M129.19,58.07s3.34,61.11-37.68,67.45c-41.02,6.34-13.49-113.86-13.49-113.86,0,0,30.43-12.57,51.17,46.41Z"/><path class="cls-1" d="M249.66,141.59c-19.49,.04-35.23-8.44-48.8-21.34-9.87-9.39-18.71-19.86-28.6-29.23-12.66-11.99-20.97-12.08-33.61-.23-9.94,9.31-18.79,19.76-28.62,29.21-11.83,11.37-25.53,19.43-42.36,20.94C19.26,145.26-3.37,103.97,.41,62.69,2.6,38.66,11.3,17.37,34.69,6.4,59.7-5.32,83.36-.44,104.05,16.87c10.94,9.15,20.28,20.2,30.42,30.31,16.6,16.56,25.6,16.47,42.17-.49,8.06-8.25,15.52-17.14,23.99-24.94C224.74-.42,253.41-5.7,277.59,6.96c22.71,11.89,36.66,43.11,32.68,73.17-4.36,32.94-20.01,53.26-46.12,59.49-4.72,1.13-9.65,1.33-14.49,1.97Zm55.86-67.55c.64-29.89-11.98-54.57-32.64-63.46-25.38-10.93-47.92-4.32-67.5,13.84-8.7,8.07-16.49,17.13-24.82,25.61-19.4,19.75-31.83,19.53-51.2-.54-9.47-9.8-18.47-20.2-28.84-28.95C64.74-9.66,17.46,6.27,7.14,51.77c-3.62,15.97-2.86,31.91,2.8,47.49,12.43,34.21,49.25,47.9,80.38,28.85,9.98-6.1,18.35-14.94,27.08-22.93,7.72-7.07,14.42-15.32,22.48-21.94,10.19-8.37,20.43-8.34,30.68-.19,7.07,5.62,13.05,12.6,19.56,18.93,7.27,7.06,13.97,14.87,21.99,20.95,37.22,28.23,82.29,11.16,91.66-34.47,1.12-5.46,1.37-11.1,1.76-14.43Z"/><path class="cls-2" d="M83.48,15.9c-3.72,16.19-9.04,32.21-10.68,48.62-1.48,14.76,.81,29.97,2.04,44.96,.34,4.19,2.8,8.28,5.22,15.01,13.44-19.45,10.06-39.89,16.98-58l-7.47,51.25c7.92-5.63,13.35-9.83,19.16-13.54,4.68-2.99,9.81-5.39,14.73-8.05-11.35,8.36-22.28,17.25-34.16,24.92-10.04,6.47-14.71,4.7-16.83-6.85-2.38-13.03-4-26.41-3.53-39.51,.56-15.62,3.18-31.2,6.04-46.6,.82-4.43,5.56-8.16,8.5-12.21Z"/><path class="cls-2" d="M214,122.05c4.8,1.22,9.6,2.43,14.31,3.63-2.13-20.69-4.19-40.73-6.25-60.78l2.95-.39c3.25,21.74,.1,44.79,12.54,66.89,9.52-13.1,7.35-26.93,8.91-39.87-2.3,6.9-4.59,13.79-6.79,20.39-2.58-9.84,3.18-23.91,12.42-29.82-1.62,11.59-2.53,23.34-5.03,34.74-3.76,17.1-7.72,18.73-23.71,11.36-3.35-1.54-6.25-4.08-9.35-6.16Z"/><path class="cls-2" d="M260.54,65.48c-10.45-.73-14.25-9.22-17.87-16.73-3.27-6.77-4.39-14.58-6.46-21.93,.97-.29,1.93-.58,2.9-.87,2.37,7.53,4.73,15.05,7.1,22.58l2.77-.76c-2.91-12.39-5.82-24.78-8.72-37.17,10.61,9.36,9.15,22.75,10.23,34.65,.79,8.8,3.18,15.22,10.05,20.24Z"/><path class="cls-2" d="M202.76,31.61c-6.9,15.81-10.51,32.18-7.96,49.49,1.05,7.11,2.44,14.17,3.68,21.26-12.12-21.29-9.98-56.75,4.28-70.74Z"/><path class="cls-2" d="M240.65,10.92c-2.83,3-6.56,5.56-8.28,9.1-2.28,4.67-2.99,10.11-6.54,14.66,1.36-6.96,2.72-13.92,4.08-20.88l-2.75-1.66c-8.23,6.61-16.46,13.22-24.69,19.84,6.08-15.43,26.46-26.66,38.18-21.06Z"/><path class="cls-3" d="M173.66,51.05c-16.57,16.96-29.15,12.96-45.75-3.6-2.55-2.54-5.05-5.14-7.53-7.76v63.13c3.82-4.01,7.67-7.99,11.71-11.77,12.64-11.85,23.82-17.77,36.48-5.78,8.47,8.02,37.87,31.24,46.1,39.5l-6.65-15.94V22.07c-6.88,6.81-27.58,22.05-34.36,28.98Z"/><path class="cls-2" d="M85.7,40.03c.48,1.58,1.15,3.08,1.91,4.53l.56,1.09,.62,1.05,.62,1.05,.69,1.01c1.84,2.68,3.93,5.17,6.34,7.31,4.72,4.39,10.35,7.69,16.35,9.94,1.52,.52,3.06,.99,4.58,1.49,1.53,.49,3.12,.78,4.67,1.17,3.11,.78,6.3,1.21,9.49,1.44,6.38,.49,12.81,.07,19.08-1.28,6.3-1.25,12.41-3.39,18.45-5.85,3.03-1.21,6.05-2.51,9.17-3.73,1.57-.6,3.16-1.19,4.84-1.65,1.69-.43,3.5-.81,5.53-.55,1.06,.17,2.12,.6,2.91,1.2,.2,.15,.41,.29,.6,.45l.52,.49c.37,.32,.64,.68,.95,1.03,1.15,1.43,1.99,2.96,2.7,4.52,1.42,3.12,2.37,6.34,3.19,9.57,1.54,6.48,2.52,13.03,2.96,19.62-1.32-6.46-2.81-12.88-4.85-19.08-1.01-3.09-2.15-6.16-3.65-8.94-.75-1.38-1.57-2.72-2.55-3.81-.98-1.08-2.09-1.88-3.19-1.96-1.26-.1-2.74,.21-4.2,.68-1.47,.46-2.97,1.05-4.46,1.67-2.98,1.27-5.98,2.66-9.03,3.98-6.11,2.61-12.48,4.89-19.1,6.27-6.62,1.35-13.47,1.78-20.22,1.12-3.37-.34-6.72-.89-9.97-1.8l-2.44-.66c-.81-.23-1.64-.4-2.42-.73-1.58-.6-3.17-1.17-4.74-1.8-6.23-2.62-11.97-6.51-16.57-11.44-2.32-2.44-4.3-5.19-5.91-8.12-1.59-2.93-2.88-6.05-3.47-9.3Z"/></svg>